<svg xmlns="http://www.w3.org/2000/svg" width="705" viewBox="0 0 705 591" height="591" version="1.0"><defs><clipPath id="a"><path d="M 160.613281 182.636719 L 582.144531 182.636719 L 582.144531 407.175781 L 160.613281 407.175781 Z M 160.613281 182.636719"/></clipPath></defs><g clip-path="url(#a)"><path fill="#FFF" d="M 565.273438 307.902344 C 566.109375 311.75 569.527344 314.601562 573.617188 314.601562 C 578.324219 314.601562 582.144531 310.78125 582.144531 306.070312 C 582.144531 301.363281 578.324219 297.542969 573.617188 297.542969 C 569.527344 297.542969 566.109375 300.421875 565.273438 304.242188 L 485.148438 304.242188 L 485.148438 293.050781 L 487.867188 293.050781 C 488.675781 296.898438 492.117188 299.832031 496.207031 299.832031 C 500.917969 299.832031 504.765625 295.984375 504.765625 291.273438 C 504.765625 286.566406 500.917969 282.746094 496.207031 282.746094 C 492.171875 282.746094 488.78125 285.570312 487.894531 289.363281 L 485.148438 289.363281 L 485.148438 278.171875 L 511.597656 278.171875 L 526.558594 293.105469 L 535.195312 293.105469 C 536.027344 296.953125 539.445312 299.832031 543.535156 299.832031 C 548.242188 299.832031 552.0625 295.984375 552.0625 291.273438 C 552.0625 286.566406 548.242188 282.746094 543.535156 282.746094 C 539.445312 282.746094 536.027344 285.625 535.195312 289.445312 L 528.0625 289.445312 L 513.105469 274.488281 L 485.148438 274.488281 L 485.148438 263.292969 L 529.195312 263.292969 L 544.53125 278.601562 L 565.273438 278.601562 C 566.109375 282.449219 569.527344 285.300781 573.617188 285.300781 C 578.324219 285.300781 582.144531 281.480469 582.144531 276.773438 C 582.144531 272.066406 578.324219 268.246094 573.617188 268.246094 C 569.527344 268.246094 566.109375 271.125 565.273438 274.945312 L 546.039062 274.945312 L 530.726562 259.609375 L 485.148438 259.609375 L 485.148438 248.417969 L 546.925781 248.417969 C 547.785156 252.238281 551.203125 255.117188 555.265625 255.117188 C 559.972656 255.117188 563.820312 251.296875 563.820312 246.585938 C 563.820312 241.878906 559.972656 238.03125 555.265625 238.03125 C 551.203125 238.03125 547.785156 240.910156 546.925781 244.757812 L 485.148438 244.757812 L 485.148438 233.539062 L 498.523438 233.539062 C 499.355469 237.359375 502.773438 240.238281 506.863281 240.238281 C 511.570312 240.238281 515.390625 236.417969 515.390625 231.710938 C 515.390625 227 511.570312 223.179688 506.863281 223.179688 C 502.773438 223.179688 499.355469 226.03125 498.523438 229.878906 L 485.148438 229.878906 L 485.148438 223.261719 C 485.148438 221.675781 484.90625 220.113281 484.476562 218.660156 L 507.617188 218.660156 L 533.285156 192.996094 L 549.507812 192.996094 C 550.34375 196.816406 553.757812 199.695312 557.847656 199.695312 C 562.558594 199.695312 566.378906 195.875 566.378906 191.164062 C 566.378906 186.457031 562.558594 182.609375 557.847656 182.609375 C 553.757812 182.609375 550.34375 185.488281 549.507812 189.308594 L 531.777344 189.308594 L 506.082031 215.003906 L 482.863281 215.003906 C 480.039062 210.265625 474.871094 207.09375 468.953125 207.09375 L 273.804688 207.09375 C 267.886719 207.09375 262.71875 210.265625 259.894531 215.003906 L 236.675781 215.003906 L 210.980469 189.308594 L 193.25 189.308594 C 192.417969 185.488281 189 182.609375 184.9375 182.609375 C 180.226562 182.609375 176.378906 186.457031 176.378906 191.164062 C 176.378906 195.875 180.226562 199.695312 184.9375 199.695312 C 189 199.695312 192.417969 196.816406 193.25 192.996094 L 209.472656 192.996094 L 235.140625 218.660156 L 258.28125 218.660156 C 257.851562 220.113281 257.636719 221.675781 257.636719 223.261719 L 257.636719 229.878906 L 244.238281 229.878906 C 243.402344 226.03125 239.984375 223.179688 235.894531 223.179688 C 231.1875 223.179688 227.367188 227 227.367188 231.710938 C 227.367188 236.417969 231.1875 240.238281 235.894531 240.238281 C 239.984375 240.238281 243.402344 237.359375 244.238281 233.539062 L 257.636719 233.539062 L 257.636719 244.757812 L 195.832031 244.757812 C 195 240.910156 191.554688 238.03125 187.492188 238.03125 C 182.785156 238.03125 178.964844 241.878906 178.964844 246.585938 C 178.964844 251.296875 182.785156 255.117188 187.492188 255.117188 C 191.554688 255.117188 195 252.238281 195.832031 248.417969 L 257.636719 248.417969 L 257.636719 259.609375 L 212.03125 259.609375 L 196.722656 274.945312 L 177.484375 274.945312 C 176.648438 271.125 173.230469 268.246094 169.144531 268.246094 C 164.433594 268.246094 160.613281 272.066406 160.613281 276.773438 C 160.613281 281.480469 164.433594 285.300781 169.144531 285.300781 C 173.230469 285.300781 176.648438 282.449219 177.484375 278.601562 L 198.226562 278.601562 L 213.5625 263.292969 L 257.636719 263.292969 L 257.636719 274.488281 L 229.652344 274.488281 L 214.695312 289.445312 L 207.5625 289.445312 C 206.730469 285.625 203.3125 282.746094 199.222656 282.746094 C 194.515625 282.746094 190.695312 286.566406 190.695312 291.273438 C 190.695312 295.984375 194.515625 299.832031 199.222656 299.832031 C 203.3125 299.832031 206.730469 296.953125 207.5625 293.105469 L 216.199219 293.105469 L 231.160156 278.171875 L 257.636719 278.171875 L 257.636719 289.363281 L 254.863281 289.363281 C 254.003906 285.570312 250.585938 282.746094 246.550781 282.746094 C 241.839844 282.746094 237.996094 286.566406 237.996094 291.273438 C 237.996094 295.984375 241.839844 299.832031 246.550781 299.832031 C 250.667969 299.832031 254.082031 296.898438 254.890625 293.050781 L 257.636719 293.050781 L 257.636719 304.242188 L 177.484375 304.242188 C 176.648438 300.421875 173.230469 297.542969 169.144531 297.542969 C 164.433594 297.542969 160.613281 301.363281 160.613281 306.070312 C 160.613281 310.78125 164.433594 314.601562 169.144531 314.601562 C 173.230469 314.601562 176.648438 311.75 177.484375 307.902344 L 257.636719 307.902344 L 257.636719 319.121094 L 235.140625 319.121094 L 220.9375 333.351562 L 190.695312 333.351562 C 189.859375 329.503906 186.441406 326.625 182.351562 326.625 C 177.644531 326.625 173.824219 330.472656 173.824219 335.183594 C 173.824219 339.890625 177.644531 343.710938 182.351562 343.710938 C 186.441406 343.710938 189.859375 340.832031 190.695312 337.011719 L 222.441406 337.011719 L 236.675781 322.777344 L 257.636719 322.777344 L 257.636719 333.996094 L 254.890625 333.996094 C 254.03125 330.152344 250.613281 327.300781 246.550781 327.300781 C 241.839844 327.300781 237.996094 331.121094 237.996094 335.828125 C 237.996094 340.535156 241.839844 344.355469 246.550781 344.355469 C 250.613281 344.355469 254.03125 341.476562 254.890625 337.65625 L 257.636719 337.65625 L 257.636719 343.628906 C 257.636719 345.460938 257.929688 347.234375 258.496094 348.875 L 201.027344 348.875 L 186.550781 363.351562 L 177.484375 363.351562 C 176.648438 359.53125 173.230469 356.652344 169.144531 356.652344 C 164.433594 356.652344 160.613281 360.5 160.613281 365.207031 C 160.613281 369.886719 164.433594 373.734375 169.144531 373.734375 C 173.230469 373.734375 176.648438 370.855469 177.484375 367.035156 L 188.058594 367.035156 L 202.558594 352.535156 L 260.300781 352.535156 C 263.203125 356.921875 268.15625 359.796875 273.804688 359.796875 L 333.292969 359.796875 L 333.292969 397.0625 L 316.988281 397.0625 C 311.417969 397.0625 306.871094 401.582031 306.871094 407.175781 L 435.886719 407.175781 C 435.886719 401.582031 431.367188 397.0625 425.769531 397.0625 L 409.464844 397.0625 L 409.464844 359.796875 L 468.953125 359.796875 C 474.601562 359.796875 479.582031 356.921875 482.460938 352.535156 L 540.199219 352.535156 L 554.699219 367.035156 L 565.273438 367.035156 C 566.109375 370.855469 569.527344 373.734375 573.617188 373.734375 C 578.324219 373.734375 582.144531 369.886719 582.144531 365.207031 C 582.144531 360.5 578.324219 356.652344 573.617188 356.652344 C 569.527344 356.652344 566.109375 359.53125 565.273438 363.351562 L 556.207031 363.351562 L 541.734375 348.875 L 484.261719 348.875 C 484.828125 347.234375 485.148438 345.460938 485.148438 343.628906 L 485.148438 337.65625 L 487.894531 337.65625 C 488.726562 341.476562 492.144531 344.355469 496.207031 344.355469 C 500.917969 344.355469 504.765625 340.535156 504.765625 335.828125 C 504.765625 331.121094 500.917969 327.300781 496.207031 327.300781 C 492.144531 327.300781 488.726562 330.152344 487.894531 333.996094 L 485.148438 333.996094 L 485.148438 322.777344 L 506.082031 322.777344 L 520.316406 337.011719 L 552.0625 337.011719 C 552.925781 340.832031 556.34375 343.710938 560.40625 343.710938 C 565.113281 343.710938 568.933594 339.890625 568.933594 335.183594 C 568.933594 330.472656 565.113281 326.625 560.40625 326.625 C 556.34375 326.625 552.925781 329.503906 552.0625 333.351562 L 521.847656 333.351562 L 507.617188 319.121094 L 485.148438 319.121094 L 485.148438 307.902344 Z M 573.617188 301.203125 C 576.304688 301.203125 578.484375 303.382812 578.484375 306.070312 C 578.484375 308.761719 576.304688 310.941406 573.617188 310.941406 C 570.925781 310.941406 568.746094 308.761719 568.746094 306.070312 C 568.746094 303.382812 570.925781 301.203125 573.617188 301.203125 Z M 496.207031 286.40625 C 498.898438 286.40625 501.078125 288.609375 501.078125 291.273438 C 501.078125 293.964844 498.898438 296.144531 496.207031 296.144531 C 493.542969 296.144531 491.339844 293.964844 491.339844 291.273438 C 491.339844 288.609375 493.542969 286.40625 496.207031 286.40625 Z M 543.535156 286.40625 C 546.226562 286.40625 548.40625 288.609375 548.40625 291.273438 C 548.40625 293.964844 546.226562 296.144531 543.535156 296.144531 C 540.84375 296.144531 538.664062 293.964844 538.664062 291.273438 C 538.664062 288.609375 540.84375 286.40625 543.535156 286.40625 Z M 573.617188 271.902344 C 576.304688 271.902344 578.484375 274.082031 578.484375 276.773438 C 578.484375 279.464844 576.304688 281.644531 573.617188 281.644531 C 570.925781 281.644531 568.746094 279.464844 568.746094 276.773438 C 568.746094 274.082031 570.925781 271.902344 573.617188 271.902344 Z M 555.265625 241.71875 C 557.957031 241.71875 560.136719 243.898438 560.136719 246.585938 C 560.136719 249.25 557.957031 251.457031 555.265625 251.457031 C 552.574219 251.457031 550.394531 249.25 550.394531 246.585938 C 550.394531 243.898438 552.574219 241.71875 555.265625 241.71875 Z M 506.863281 226.839844 C 509.554688 226.839844 511.734375 229.019531 511.734375 231.710938 C 511.734375 234.398438 509.554688 236.578125 506.863281 236.578125 C 504.171875 236.578125 501.992188 234.398438 501.992188 231.710938 C 501.992188 229.019531 504.171875 226.839844 506.863281 226.839844 Z M 557.847656 186.296875 C 560.511719 186.296875 562.71875 188.476562 562.71875 191.164062 C 562.71875 193.855469 560.511719 196.035156 557.847656 196.035156 C 555.160156 196.035156 552.980469 193.855469 552.980469 191.164062 C 552.980469 188.476562 555.160156 186.296875 557.847656 186.296875 Z M 184.9375 196.035156 C 182.246094 196.035156 180.066406 193.855469 180.066406 191.164062 C 180.066406 188.476562 182.246094 186.296875 184.9375 186.296875 C 187.601562 186.296875 189.804688 188.476562 189.804688 191.164062 C 189.804688 193.855469 187.601562 196.035156 184.9375 196.035156 Z M 235.894531 236.578125 C 233.230469 236.578125 231.027344 234.398438 231.027344 231.710938 C 231.027344 229.019531 233.230469 226.839844 235.894531 226.839844 C 238.585938 226.839844 240.792969 229.019531 240.792969 231.710938 C 240.792969 234.398438 238.585938 236.578125 235.894531 236.578125 Z M 187.492188 251.457031 C 184.800781 251.457031 182.621094 249.25 182.621094 246.585938 C 182.621094 243.898438 184.800781 241.71875 187.492188 241.71875 C 190.183594 241.71875 192.363281 243.898438 192.363281 246.585938 C 192.363281 249.25 190.183594 251.457031 187.492188 251.457031 Z M 169.144531 281.644531 C 166.453125 281.644531 164.273438 279.464844 164.273438 276.773438 C 164.273438 274.082031 166.453125 271.902344 169.144531 271.902344 C 171.832031 271.902344 174.011719 274.082031 174.011719 276.773438 C 174.011719 279.464844 171.832031 281.644531 169.144531 281.644531 Z M 199.222656 296.144531 C 196.53125 296.144531 194.351562 293.964844 194.351562 291.273438 C 194.351562 288.609375 196.53125 286.40625 199.222656 286.40625 C 201.914062 286.40625 204.09375 288.609375 204.09375 291.273438 C 204.09375 293.964844 201.914062 296.144531 199.222656 296.144531 Z M 246.550781 296.144531 C 243.859375 296.144531 241.679688 293.964844 241.679688 291.273438 C 241.679688 288.609375 243.859375 286.40625 246.550781 286.40625 C 249.242188 286.40625 251.421875 288.609375 251.421875 291.273438 C 251.421875 293.964844 249.242188 296.144531 246.550781 296.144531 Z M 169.144531 310.941406 C 166.453125 310.941406 164.273438 308.761719 164.273438 306.070312 C 164.273438 303.382812 166.453125 301.203125 169.144531 301.203125 C 171.832031 301.203125 174.011719 303.382812 174.011719 306.070312 C 174.011719 308.761719 171.832031 310.941406 169.144531 310.941406 Z M 182.351562 340.050781 C 179.664062 340.050781 177.484375 337.84375 177.484375 335.183594 C 177.484375 332.492188 179.664062 330.3125 182.351562 330.3125 C 185.042969 330.3125 187.222656 332.492188 187.222656 335.183594 C 187.222656 337.84375 185.042969 340.050781 182.351562 340.050781 Z M 246.550781 340.695312 C 243.859375 340.695312 241.679688 338.519531 241.679688 335.828125 C 241.679688 333.136719 243.859375 330.957031 246.550781 330.957031 C 249.242188 330.957031 251.421875 333.136719 251.421875 335.828125 C 251.421875 338.519531 249.242188 340.695312 246.550781 340.695312 Z M 169.144531 370.050781 C 166.453125 370.050781 164.273438 367.871094 164.273438 365.207031 C 164.273438 362.515625 166.453125 360.335938 169.144531 360.335938 C 171.832031 360.335938 174.011719 362.515625 174.011719 365.207031 C 174.011719 367.871094 171.832031 370.050781 169.144531 370.050781 Z M 471.75 343.628906 C 471.75 345.164062 470.511719 346.425781 468.953125 346.425781 L 273.804688 346.425781 C 272.273438 346.425781 271.007812 345.164062 271.007812 343.628906 L 271.007812 223.261719 C 271.007812 221.726562 272.273438 220.464844 273.804688 220.464844 L 468.953125 220.464844 C 470.511719 220.464844 471.75 221.726562 471.75 223.261719 Z M 573.617188 360.335938 C 576.304688 360.335938 578.484375 362.515625 578.484375 365.207031 C 578.484375 367.871094 576.304688 370.050781 573.617188 370.050781 C 570.925781 370.050781 568.746094 367.871094 568.746094 365.207031 C 568.746094 362.515625 570.925781 360.335938 573.617188 360.335938 Z M 496.207031 330.957031 C 498.898438 330.957031 501.078125 333.136719 501.078125 335.828125 C 501.078125 338.519531 498.898438 340.695312 496.207031 340.695312 C 493.542969 340.695312 491.339844 338.519531 491.339844 335.828125 C 491.339844 333.136719 493.542969 330.957031 496.207031 330.957031 Z M 560.40625 330.3125 C 563.09375 330.3125 565.273438 332.492188 565.273438 335.183594 C 565.273438 337.84375 563.09375 340.050781 560.40625 340.050781 C 557.714844 340.050781 555.535156 337.84375 555.535156 335.183594 C 555.535156 332.492188 557.714844 330.3125 560.40625 330.3125"/></g><path fill="#FFF" d="M 332.351562 260.066406 C 331.707031 258.640625 330.550781 257.617188 329.125 257.617188 L 314.378906 257.617188 C 312.925781 257.617188 311.769531 258.695312 311.125 260.148438 L 290.972656 305.480469 C 290.324219 306.90625 291.347656 307.980469 292.773438 307.980469 L 304.289062 307.980469 C 305.742188 307.980469 306.953125 306.90625 307.546875 305.480469 L 310.046875 298.996094 L 332.703125 298.996094 L 335.230469 305.480469 C 335.796875 306.90625 337.035156 307.980469 338.460938 307.980469 L 350.703125 307.980469 C 352.128906 307.980469 353.152344 306.90625 352.503906 305.480469 Z M 315.078125 287.132812 L 321.214844 272.738281 L 321.914062 272.738281 L 327.671875 287.132812 L 315.078125 287.132812"/><path fill="#FFF" d="M 385.8125 257.617188 L 360.628906 257.617188 C 359.175781 257.617188 358.101562 258.695312 358.101562 260.148438 L 358.101562 305.480469 C 358.101562 306.90625 359.175781 307.980469 360.628906 307.980469 L 371.417969 307.980469 C 372.871094 307.980469 373.949219 306.90625 373.949219 305.480469 L 373.949219 294.316406 L 385.8125 294.316406 C 402.710938 294.316406 410.621094 286.40625 410.621094 275.964844 C 410.621094 265.527344 402.710938 257.617188 385.8125 257.617188 Z M 385.8125 282.800781 L 373.949219 282.800781 L 373.949219 269.132812 L 385.8125 269.132812 C 391.195312 269.132812 394.074219 272.011719 394.074219 275.964844 C 394.074219 279.921875 391.195312 282.800781 385.8125 282.800781"/><path fill="#FFF" d="M 446.96875 257.617188 L 417.457031 257.617188 C 416.027344 257.617188 414.953125 258.695312 414.953125 260.148438 L 414.953125 267.332031 C 414.953125 268.78125 416.027344 269.859375 417.457031 269.859375 L 424.289062 269.859375 L 424.289062 295.769531 L 417.457031 295.769531 C 416.027344 295.769531 414.953125 296.84375 414.953125 298.269531 L 414.953125 305.480469 C 414.953125 306.90625 416.027344 307.980469 417.457031 307.980469 L 446.96875 307.980469 C 448.398438 307.980469 449.472656 306.90625 449.472656 305.480469 L 449.472656 298.269531 C 449.472656 296.84375 448.398438 295.769531 446.96875 295.769531 L 440.136719 295.769531 L 440.136719 269.859375 L 446.96875 269.859375 C 448.398438 269.859375 449.472656 268.78125 449.472656 267.332031 L 449.472656 260.148438 C 449.472656 258.695312 448.398438 257.617188 446.96875 257.617188"/></svg>