<svg xmlns="http://www.w3.org/2000/svg" width="705" viewBox="0 0 705 591" height="591" version="1.0"><defs><clipPath id="a"><path d="M 126.464844 112.996094 L 578.699219 112.996094 L 578.699219 396 L 126.464844 396 Z M 126.464844 112.996094"/></clipPath><clipPath id="b"><path d="M 405 423 L 463 423 L 463 437.945312 L 405 437.945312 Z M 405 423"/></clipPath><clipPath id="c"><path d="M 243 423 L 300 423 L 300 437.945312 L 243 437.945312 Z M 243 423"/></clipPath></defs><path fill="#FFF" d="M 341.984375 381.433594 L 363.183594 381.433594 L 363.183594 395.5625 L 341.984375 395.5625 Z M 341.984375 381.433594"/><g clip-path="url(#a)"><path fill="#FFF" d="M 504.503906 246.507812 L 496.378906 246.507812 C 495.316406 199.179688 456.453125 161.03125 409.113281 161.03125 C 398.160156 161.03125 387.558594 163.152344 377.3125 167.039062 C 358.589844 133.835938 323.613281 112.996094 285.453125 112.996094 C 227.511719 112.996094 180.523438 160.328125 180.523438 218.253906 C 180.523438 228.496094 181.9375 238.738281 184.761719 248.273438 C 151.199219 255.339844 126.46875 285.363281 126.46875 321.035156 C 126.46875 362.007812 159.679688 395.5625 200.660156 395.5625 L 200.660156 381.433594 C 167.449219 381.433594 140.597656 354.238281 140.597656 321.035156 C 140.597656 289.953125 163.5625 264.167969 194.300781 260.992188 C 196.421875 263.109375 198.894531 265.230469 202.074219 266.996094 C 203.132812 267.703125 204.546875 268.054688 205.960938 268.054688 C 208.433594 268.054688 210.554688 266.996094 211.96875 264.875 C 214.085938 261.695312 213.027344 257.105469 209.847656 254.984375 C 204.195312 251.453125 200.660156 246.15625 198.894531 243.332031 C 198.894531 242.976562 198.542969 242.976562 198.542969 242.625 C 196.421875 234.5 195.007812 226.375 195.007812 217.898438 C 194.65625 168.097656 235.285156 127.125 285.453125 127.125 C 320.433594 127.125 352.582031 147.609375 367.421875 179.398438 C 368.128906 181.164062 369.542969 182.578125 371.308594 182.933594 C 373.074219 183.636719 375.195312 183.285156 376.609375 182.578125 C 386.5 177.632812 397.453125 175.160156 408.757812 175.160156 C 449.035156 175.160156 481.890625 208.007812 481.890625 248.628906 C 481.890625 250.042969 481.890625 251.808594 481.890625 253.21875 C 481.890625 255.339844 482.597656 257.105469 483.660156 258.519531 C 484.71875 259.929688 486.839844 260.636719 488.957031 260.636719 L 504.503906 260.636719 C 537.714844 260.636719 564.566406 287.835938 564.566406 321.035156 C 564.566406 354.238281 537.714844 381.433594 504.503906 381.433594 L 504.503906 395.5625 C 545.488281 395.5625 578.699219 362.007812 578.699219 321.035156 C 578.699219 280.0625 545.488281 246.507812 504.503906 246.507812 Z M 504.503906 246.507812"/></g><path fill="#FFF" d="M 313.71875 339.050781 L 228.925781 339.050781 C 221.152344 339.050781 214.792969 345.40625 214.792969 353.175781 L 214.792969 402.625 C 214.792969 410.398438 221.152344 416.753906 228.925781 416.753906 L 313.71875 416.753906 C 321.492188 416.753906 327.851562 410.398438 327.851562 402.625 L 327.851562 353.175781 C 327.851562 345.40625 321.492188 339.050781 313.71875 339.050781 Z M 228.925781 402.625 L 228.925781 353.175781 L 313.71875 353.175781 L 313.71875 402.625 Z M 228.925781 402.625"/><g clip-path="url(#b)"><path fill="#FFF" d="M 455.042969 423.820312 L 412.644531 423.820312 C 408.757812 423.820312 405.578125 426.996094 405.578125 430.882812 C 405.578125 434.769531 408.757812 437.945312 412.644531 437.945312 L 455.042969 437.945312 C 458.925781 437.945312 462.109375 434.769531 462.109375 430.882812 C 462.109375 426.996094 458.925781 423.820312 455.042969 423.820312 Z M 455.042969 423.820312"/></g><path fill="#FFF" d="M 476.238281 339.050781 L 391.445312 339.050781 C 383.671875 339.050781 377.3125 345.40625 377.3125 353.175781 L 377.3125 402.625 C 377.3125 410.398438 383.671875 416.753906 391.445312 416.753906 L 476.238281 416.753906 C 484.011719 416.753906 490.371094 410.398438 490.371094 402.625 L 490.371094 353.175781 C 490.371094 345.40625 484.011719 339.050781 476.238281 339.050781 Z M 391.445312 402.625 L 391.445312 353.175781 L 476.238281 353.175781 L 476.238281 402.625 Z M 391.445312 402.625"/><path fill="#FFF" d="M 394.980469 303.730469 C 402.753906 303.730469 409.113281 297.371094 409.113281 289.601562 L 409.113281 240.152344 C 409.113281 232.378906 402.753906 226.023438 394.980469 226.023438 L 310.1875 226.023438 C 302.414062 226.023438 296.054688 232.378906 296.054688 240.152344 L 296.054688 289.601562 C 296.054688 297.371094 302.414062 303.730469 310.1875 303.730469 Z M 310.1875 240.152344 L 394.980469 240.152344 L 394.980469 289.601562 L 310.1875 289.601562 Z M 310.1875 240.152344"/><path fill="#FFF" d="M 380.847656 317.855469 C 380.847656 313.972656 377.667969 310.792969 373.78125 310.792969 L 331.382812 310.792969 C 327.496094 310.792969 324.316406 313.972656 324.316406 317.855469 C 324.316406 321.742188 327.496094 324.921875 331.382812 324.921875 L 373.78125 324.921875 C 377.667969 324.921875 380.847656 321.742188 380.847656 317.855469 Z M 380.847656 317.855469"/><path fill="#FFF" d="M 221.859375 315.382812 C 221.859375 316.796875 221.859375 317.855469 221.859375 317.855469 C 221.859375 321.742188 225.039062 324.921875 228.925781 324.921875 C 232.8125 324.921875 235.992188 321.742188 235.992188 317.855469 C 235.992188 317.855469 235.992188 317.152344 235.992188 316.796875 C 236.34375 312.910156 233.519531 309.378906 229.632812 309.027344 C 225.746094 308.671875 222.214844 311.5 221.859375 315.382812 Z M 221.859375 315.382812"/><path fill="#FFF" d="M 248.710938 286.066406 C 250.125 286.066406 251.890625 285.714844 252.949219 284.65625 C 253.65625 283.949219 254.363281 283.597656 255.421875 282.890625 C 258.601562 280.769531 259.308594 276.179688 257.191406 273 C 255.070312 269.820312 250.476562 269.113281 247.296875 271.234375 C 246.238281 271.941406 245.179688 272.644531 244.117188 273.351562 C 240.9375 275.824219 240.585938 280.0625 243.058594 283.242188 C 244.472656 285.363281 246.589844 286.066406 248.710938 286.066406 Z M 248.710938 286.066406"/><path fill="#FFF" d="M 239.523438 287.835938 C 235.992188 286.066406 231.753906 287.128906 229.984375 290.660156 C 229.277344 291.71875 228.925781 292.777344 228.21875 293.839844 C 226.453125 297.371094 227.867188 301.609375 231.398438 303.375 C 232.457031 303.730469 233.519531 304.082031 234.578125 304.082031 C 237.050781 304.082031 239.878906 302.667969 240.9375 300.195312 C 241.292969 299.488281 241.644531 298.429688 242.351562 297.722656 C 244.117188 294.191406 242.703125 289.953125 239.523438 287.835938 Z M 239.523438 287.835938"/><path fill="#FFF" d="M 269.554688 275.824219 C 270.261719 275.824219 270.96875 275.824219 271.324219 275.472656 C 271.675781 275.472656 272.382812 275.117188 272.734375 275.117188 C 276.621094 274.058594 278.742188 270.175781 277.683594 266.640625 C 276.621094 262.757812 272.734375 260.636719 269.203125 261.695312 C 268.496094 261.695312 267.789062 262.050781 267.4375 262.050781 C 263.550781 263.109375 261.429688 266.996094 262.488281 270.878906 C 263.550781 274.058594 266.375 275.824219 269.554688 275.824219 Z M 269.554688 275.824219"/><path fill="#FFF" d="M 465.640625 316.796875 C 465.640625 317.503906 465.640625 317.855469 465.640625 317.855469 C 465.640625 321.742188 468.820312 324.921875 472.707031 324.921875 C 476.59375 324.921875 479.773438 321.742188 479.773438 317.855469 C 479.773438 317.855469 479.773438 317.152344 479.773438 315.382812 C 479.417969 311.5 476.238281 308.671875 472 309.027344 C 468.113281 309.378906 465.289062 312.910156 465.640625 316.796875 Z M 465.640625 316.796875"/><path fill="#FFF" d="M 472 290.660156 C 470.234375 287.128906 465.640625 286.066406 462.460938 287.835938 C 458.925781 289.601562 457.867188 294.191406 459.632812 297.371094 C 459.988281 298.078125 460.695312 299.136719 461.046875 299.84375 C 462.109375 302.316406 464.933594 303.730469 467.40625 303.730469 C 468.46875 303.730469 469.527344 303.375 470.585938 303.023438 C 474.121094 301.257812 475.53125 297.019531 473.765625 293.484375 C 473.058594 292.777344 472.707031 291.71875 472 290.660156 Z M 472 290.660156"/><path fill="#FFF" d="M 457.160156 273.351562 C 456.101562 272.644531 455.042969 271.941406 453.980469 271.234375 C 450.800781 269.113281 446.207031 269.820312 444.089844 273 C 441.96875 276.179688 442.675781 280.769531 445.855469 282.890625 C 446.5625 283.597656 447.269531 283.949219 448.328125 284.65625 C 449.742188 285.714844 451.15625 286.066406 452.566406 286.066406 C 454.6875 286.066406 456.808594 285.007812 458.222656 283.242188 C 460.695312 280.417969 460.339844 275.824219 457.160156 273.351562 Z M 457.160156 273.351562"/><path fill="#FFF" d="M 429.957031 275.824219 C 430.664062 276.179688 431.371094 276.179688 431.722656 276.179688 C 434.902344 276.179688 437.730469 274.058594 438.4375 270.878906 C 439.496094 266.996094 437.375 263.109375 433.488281 262.050781 C 432.78125 262.050781 432.078125 261.695312 431.722656 261.695312 C 427.835938 260.636719 423.949219 263.109375 423.242188 266.640625 C 422.183594 270.527344 424.65625 274.414062 428.191406 275.117188 C 428.898438 275.472656 429.601562 275.472656 429.957031 275.824219 Z M 429.957031 275.824219"/><g clip-path="url(#c)"><path fill="#FFF" d="M 292.519531 423.820312 L 250.125 423.820312 C 246.238281 423.820312 243.058594 426.996094 243.058594 430.882812 C 243.058594 434.769531 246.238281 437.945312 250.125 437.945312 L 292.519531 437.945312 C 296.40625 437.945312 299.585938 434.769531 299.585938 430.882812 C 299.585938 426.996094 296.40625 423.820312 292.519531 423.820312 Z M 292.519531 423.820312"/></g></svg>