<svg xmlns="http://www.w3.org/2000/svg" width="705" viewBox="0 0 705 591" height="591" version="1.0"><defs><clipPath id="a"><path d="M 192 79.292969 L 579 79.292969 L 579 436.441406 L 192 436.441406 Z M 192 79.292969"/></clipPath></defs><g clip-path="url(#a)"><path fill="#FFF" d="M 525.050781 268.257812 L 464.613281 168.90625 L 464.613281 109.8125 C 464.613281 89.683594 424.324219 79.292969 385.980469 79.292969 C 347.640625 79.292969 307.347656 89.683594 307.347656 109.164062 L 307.347656 167.605469 L 246.261719 268.257812 C 217.019531 272.152344 192.324219 281.894531 192.324219 297.476562 L 192.324219 405.269531 C 192.324219 425.402344 232.613281 435.789062 270.957031 435.789062 C 309.296875 435.789062 349.589844 425.402344 349.589844 405.269531 L 349.589844 370.207031 L 421.722656 370.207031 L 421.722656 405.921875 C 421.722656 426.050781 462.015625 436.441406 500.355469 436.441406 C 538.695312 436.441406 578.988281 426.050781 578.988281 405.921875 L 578.988281 297.476562 C 579.636719 281.894531 554.292969 271.503906 525.050781 268.257812 Z M 569.242188 370.207031 C 569.242188 378.648438 543.246094 390.984375 500.355469 390.984375 C 458.765625 390.984375 432.769531 379.296875 431.472656 370.855469 L 431.472656 348.128906 C 445.769531 357.867188 473.710938 363.0625 500.355469 363.0625 C 527 363.0625 554.945312 357.867188 569.242188 347.476562 Z M 569.242188 332.542969 C 569.242188 340.984375 543.246094 353.324219 500.355469 353.324219 C 458.765625 353.324219 432.769531 341.632812 431.472656 333.191406 L 431.472656 312.414062 C 445.769531 322.152344 473.710938 327.347656 500.355469 327.347656 C 527 327.347656 554.945312 322.152344 569.242188 311.761719 Z M 569.242188 296.828125 C 569.242188 305.269531 543.246094 317.609375 500.355469 317.609375 C 457.464844 317.609375 431.472656 305.917969 431.472656 296.828125 C 431.472656 288.386719 457.464844 276.050781 500.355469 276.050781 C 543.246094 276.050781 569.242188 288.386719 569.242188 296.828125 Z M 385.980469 139.683594 C 412.625 139.683594 440.570312 134.488281 454.867188 124.101562 L 454.867188 144.230469 C 454.867188 152.671875 428.871094 165.007812 385.980469 165.007812 C 344.390625 165.007812 318.394531 153.320312 317.097656 144.878906 L 317.097656 124.75 C 331.394531 134.488281 359.335938 139.683594 385.980469 139.683594 Z M 385.980469 175.398438 C 412.625 175.398438 440.570312 170.203125 454.867188 159.8125 L 454.867188 182.542969 C 454.867188 190.984375 428.871094 203.320312 385.980469 203.320312 C 344.390625 203.320312 318.394531 191.632812 317.097656 183.191406 L 317.097656 159.8125 C 331.394531 170.203125 359.335938 175.398438 385.980469 175.398438 Z M 317.097656 217.605469 L 317.097656 198.125 C 331.394531 207.867188 359.335938 213.0625 385.980469 213.0625 C 412.625 213.0625 440.570312 207.867188 454.867188 197.476562 L 454.867188 216.957031 C 454.867188 225.398438 428.871094 237.738281 385.980469 237.738281 C 343.738281 238.386719 317.746094 226.046875 317.097656 217.605469 Z M 385.980469 88.386719 C 428.871094 88.386719 454.867188 100.722656 454.867188 109.164062 C 454.867188 117.605469 428.871094 129.945312 385.980469 129.945312 C 343.089844 129.945312 317.097656 118.253906 317.097656 109.164062 C 317.097656 100.722656 343.089844 88.386719 385.980469 88.386719 Z M 271.605469 276.050781 C 314.496094 276.050781 340.492188 288.386719 340.492188 296.828125 C 340.492188 305.269531 314.496094 317.609375 271.605469 317.609375 C 228.714844 317.609375 202.722656 305.917969 202.722656 296.828125 C 202.722656 288.386719 228.714844 276.050781 271.605469 276.050781 Z M 271.605469 327.347656 C 298.25 327.347656 326.195312 322.152344 340.492188 311.761719 L 340.492188 331.894531 C 340.492188 340.335938 314.496094 352.671875 271.605469 352.671875 C 230.015625 352.671875 204.019531 340.984375 202.722656 332.542969 L 202.722656 311.761719 C 217.019531 322.152344 244.3125 327.347656 271.605469 327.347656 Z M 202.722656 347.476562 C 217.019531 357.21875 244.960938 362.414062 271.605469 362.414062 C 298.25 362.414062 326.195312 357.21875 340.492188 346.828125 L 340.492188 369.554688 C 340.492188 377.996094 314.496094 390.335938 271.605469 390.335938 C 230.015625 390.335938 204.019531 378.648438 202.722656 370.207031 Z M 271.605469 426.050781 C 229.363281 426.050781 203.371094 414.363281 202.722656 405.269531 L 202.722656 385.789062 C 217.019531 395.53125 244.960938 400.726562 271.605469 400.726562 C 298.25 400.726562 326.195312 395.53125 340.492188 385.140625 L 340.492188 404.621094 C 340.492188 413.710938 313.847656 426.050781 271.605469 426.050781 Z M 350.238281 298.777344 C 350.238281 298.128906 349.589844 298.128906 350.238281 298.777344 L 350.238281 297.476562 C 350.238281 277.347656 309.949219 266.957031 271.605469 266.957031 C 267.058594 266.957031 263.15625 266.957031 258.609375 267.609375 L 307.347656 187.085938 L 307.347656 217.605469 C 307.347656 237.738281 347.640625 248.125 385.980469 248.125 C 424.324219 248.125 464.613281 237.738281 464.613281 217.605469 L 464.613281 187.738281 L 513.351562 267.609375 C 509.453125 267.609375 504.90625 266.957031 501.003906 266.957031 C 462.664062 266.957031 422.371094 277.347656 422.371094 297.476562 L 422.371094 359.816406 L 350.238281 359.816406 Z M 500.355469 426.050781 C 458.113281 426.050781 432.121094 414.363281 431.472656 405.269531 L 431.472656 385.789062 C 445.769531 395.53125 473.710938 400.726562 500.355469 400.726562 C 527 400.726562 554.945312 395.53125 569.242188 385.140625 L 569.242188 404.621094 C 569.242188 413.710938 543.246094 426.050781 500.355469 426.050781 Z M 500.355469 426.050781"/></g></svg>