<svg xmlns="http://www.w3.org/2000/svg" width="705" viewBox="0 0 705 591" height="591" version="1.0"><defs><clipPath id="a"><path d="M 136.09375 78.195312 L 551.640625 78.195312 L 551.640625 493.742188 L 136.09375 493.742188 Z M 136.09375 78.195312"/></clipPath></defs><path fill="#FFF" d="M 302.3125 209.785156 C 306.125 209.785156 309.238281 206.675781 309.238281 202.859375 C 309.238281 199.046875 306.125 195.933594 302.3125 195.933594 C 298.496094 195.933594 295.386719 199.046875 295.386719 202.859375 C 295.386719 206.675781 298.496094 209.785156 302.3125 209.785156"/><path fill="#FFF" d="M 246.90625 209.785156 C 250.71875 209.785156 253.832031 206.675781 253.832031 202.859375 C 253.832031 199.046875 250.71875 195.933594 246.90625 195.933594 C 243.089844 195.933594 239.980469 199.046875 239.980469 202.859375 C 239.980469 206.675781 243.089844 209.785156 246.90625 209.785156"/><path fill="#FFF" d="M 246.90625 376.003906 C 250.71875 376.003906 253.832031 372.894531 253.832031 369.078125 C 253.832031 365.265625 250.71875 362.152344 246.90625 362.152344 C 243.089844 362.152344 239.980469 365.265625 239.980469 369.078125 C 239.980469 372.894531 243.089844 376.003906 246.90625 376.003906"/><path fill="#FFF" d="M 302.3125 362.152344 C 298.496094 362.152344 295.386719 365.265625 295.386719 369.078125 C 295.386719 372.894531 298.496094 376.003906 302.3125 376.003906 C 305.152344 376.003906 307.640625 374.273438 308.667969 371.785156 L 309.101562 370.457031 C 309.15625 370.054688 309.238281 369.566406 309.238281 369.078125 C 309.238281 365.265625 306.125 362.152344 302.3125 362.152344"/><path fill="#FFF" d="M 246.90625 265.191406 C 258.347656 265.191406 267.683594 274.527344 267.683594 285.96875 C 267.683594 297.414062 258.347656 306.746094 246.90625 306.746094 C 235.460938 306.746094 226.128906 297.414062 226.128906 285.96875 C 226.128906 274.527344 235.460938 265.191406 246.90625 265.191406 Z M 302.3125 265.191406 C 313.753906 265.191406 323.089844 274.527344 323.089844 285.96875 C 323.089844 297.414062 313.753906 306.746094 302.3125 306.746094 C 290.867188 306.746094 281.535156 297.414062 281.535156 285.96875 C 281.535156 274.527344 290.867188 265.191406 302.3125 265.191406 Z M 233.054688 320.597656 L 325.308594 320.597656 L 347.898438 251.339844 L 233.054688 251.339844 C 221.609375 251.339844 212.277344 260.675781 212.277344 272.117188 L 212.277344 299.820312 C 212.277344 311.265625 221.609375 320.597656 233.054688 320.597656"/><path fill="#FFF" d="M 447.753906 279.042969 L 440.828125 279.042969 C 437.011719 279.042969 433.902344 275.933594 433.902344 272.117188 C 433.902344 268.304688 437.011719 265.191406 440.828125 265.191406 L 447.753906 265.191406 C 451.566406 265.191406 454.679688 268.304688 454.679688 272.117188 C 454.679688 275.933594 451.566406 279.042969 447.753906 279.042969 Z M 447.753906 306.746094 L 440.828125 306.746094 C 437.011719 306.746094 433.902344 303.636719 433.902344 299.820312 C 433.902344 296.007812 437.011719 292.894531 440.828125 292.894531 L 447.753906 292.894531 C 451.566406 292.894531 454.679688 296.007812 454.679688 299.820312 C 454.679688 303.636719 451.566406 306.746094 447.753906 306.746094 Z M 413.125 279.042969 L 406.199219 279.042969 C 402.382812 279.042969 399.273438 275.933594 399.273438 272.117188 C 399.273438 268.304688 402.382812 265.191406 406.199219 265.191406 L 413.125 265.191406 C 416.9375 265.191406 420.050781 268.304688 420.050781 272.117188 C 420.050781 275.933594 416.9375 279.042969 413.125 279.042969 Z M 413.125 306.746094 L 406.199219 306.746094 C 402.382812 306.746094 399.273438 303.636719 399.273438 299.820312 C 399.273438 296.007812 402.382812 292.894531 406.199219 292.894531 L 413.125 292.894531 C 416.9375 292.894531 420.050781 296.007812 420.050781 299.820312 C 420.050781 303.636719 416.9375 306.746094 413.125 306.746094 Z M 454.679688 251.339844 L 362.425781 251.339844 L 339.835938 320.597656 L 454.679688 320.597656 C 466.121094 320.597656 475.457031 311.265625 475.457031 299.820312 L 475.457031 272.117188 C 475.457031 260.675781 466.121094 251.339844 454.679688 251.339844"/><path fill="#FFF" d="M 246.90625 292.894531 C 250.71875 292.894531 253.832031 289.785156 253.832031 285.96875 C 253.832031 282.15625 250.71875 279.042969 246.90625 279.042969 C 243.089844 279.042969 239.980469 282.15625 239.980469 285.96875 C 239.980469 289.785156 243.089844 292.894531 246.90625 292.894531"/><path fill="#FFF" d="M 302.3125 292.894531 C 306.125 292.894531 309.238281 289.785156 309.238281 285.96875 C 309.238281 282.15625 306.125 279.042969 302.3125 279.042969 C 298.496094 279.042969 295.386719 282.15625 295.386719 285.96875 C 295.386719 289.785156 298.496094 292.894531 302.3125 292.894531"/><path fill="#FFF" d="M 246.90625 182.082031 C 258.347656 182.082031 267.683594 191.417969 267.683594 202.859375 C 267.683594 214.304688 258.347656 223.636719 246.90625 223.636719 C 235.460938 223.636719 226.128906 214.304688 226.128906 202.859375 C 226.128906 191.417969 235.460938 182.082031 246.90625 182.082031 Z M 302.3125 182.082031 C 313.753906 182.082031 323.089844 191.417969 323.089844 202.859375 C 323.089844 214.304688 313.753906 223.636719 302.3125 223.636719 C 290.867188 223.636719 281.535156 214.304688 281.535156 202.859375 C 281.535156 191.417969 290.867188 182.082031 302.3125 182.082031 Z M 233.054688 237.488281 L 352.386719 237.488281 L 374.894531 168.230469 L 233.054688 168.230469 C 221.609375 168.230469 212.277344 177.566406 212.277344 189.007812 L 212.277344 216.710938 C 212.277344 228.15625 221.609375 237.488281 233.054688 237.488281"/><path fill="#FFF" d="M 406.199219 209.785156 L 413.125 209.785156 C 416.9375 209.785156 420.050781 212.898438 420.050781 216.710938 C 420.050781 220.527344 416.9375 223.636719 413.125 223.636719 L 406.199219 223.636719 C 402.382812 223.636719 399.273438 220.527344 399.273438 216.710938 C 399.273438 212.898438 402.382812 209.785156 406.199219 209.785156 Z M 406.199219 182.082031 L 413.125 182.082031 C 416.9375 182.082031 420.050781 185.195312 420.050781 189.007812 C 420.050781 192.824219 416.9375 195.933594 413.125 195.933594 L 406.199219 195.933594 C 402.382812 195.933594 399.273438 192.824219 399.273438 189.007812 C 399.273438 185.195312 402.382812 182.082031 406.199219 182.082031 Z M 440.828125 209.785156 L 447.753906 209.785156 C 451.566406 209.785156 454.679688 212.898438 454.679688 216.710938 C 454.679688 220.527344 451.566406 223.636719 447.753906 223.636719 L 440.828125 223.636719 C 437.011719 223.636719 433.902344 220.527344 433.902344 216.710938 C 433.902344 212.898438 437.011719 209.785156 440.828125 209.785156 Z M 440.828125 182.082031 L 447.753906 182.082031 C 451.566406 182.082031 454.679688 185.195312 454.679688 189.007812 C 454.679688 192.824219 451.566406 195.933594 447.753906 195.933594 L 440.828125 195.933594 C 437.011719 195.933594 433.902344 192.824219 433.902344 189.007812 C 433.902344 185.195312 437.011719 182.082031 440.828125 182.082031 Z M 454.679688 237.488281 C 466.121094 237.488281 475.457031 228.15625 475.457031 216.710938 L 475.457031 189.007812 C 475.457031 177.566406 466.121094 168.230469 454.679688 168.230469 L 389.453125 168.230469 L 366.941406 237.488281 L 454.679688 237.488281"/><path fill="#FFF" d="M 246.90625 348.300781 C 258.347656 348.300781 267.683594 357.636719 267.683594 369.078125 C 267.683594 380.523438 258.347656 389.855469 246.90625 389.855469 C 235.460938 389.855469 226.128906 380.523438 226.128906 369.078125 C 226.128906 357.636719 235.460938 348.300781 246.90625 348.300781 Z M 233.054688 403.707031 L 298.28125 403.707031 L 302.796875 389.855469 L 302.3125 389.855469 C 290.867188 389.855469 281.535156 380.523438 281.535156 369.078125 C 281.535156 357.636719 290.867188 348.300781 302.3125 348.300781 C 307.019531 348.300781 311.375 349.898438 314.917969 352.601562 L 320.789062 334.449219 L 233.054688 334.449219 C 221.609375 334.449219 212.277344 343.785156 212.277344 355.226562 L 212.277344 382.929688 C 212.277344 394.375 221.609375 403.707031 233.054688 403.707031"/><path fill="#FFF" d="M 447.753906 362.152344 L 440.828125 362.152344 C 437.011719 362.152344 433.902344 359.042969 433.902344 355.226562 C 433.902344 351.414062 437.011719 348.300781 440.828125 348.300781 L 447.753906 348.300781 C 451.566406 348.300781 454.679688 351.414062 454.679688 355.226562 C 454.679688 359.042969 451.566406 362.152344 447.753906 362.152344 Z M 447.753906 389.855469 L 440.828125 389.855469 C 437.011719 389.855469 433.902344 386.746094 433.902344 382.929688 C 433.902344 379.117188 437.011719 376.003906 440.828125 376.003906 L 447.753906 376.003906 C 451.566406 376.003906 454.679688 379.117188 454.679688 382.929688 C 454.679688 386.746094 451.566406 389.855469 447.753906 389.855469 Z M 413.125 362.152344 L 406.199219 362.152344 C 402.382812 362.152344 399.273438 359.042969 399.273438 355.226562 C 399.273438 351.414062 402.382812 348.300781 406.199219 348.300781 L 413.125 348.300781 C 416.9375 348.300781 420.050781 351.414062 420.050781 355.226562 C 420.050781 359.042969 416.9375 362.152344 413.125 362.152344 Z M 413.125 389.855469 L 406.199219 389.855469 C 402.382812 389.855469 399.273438 386.746094 399.273438 382.929688 C 399.273438 379.117188 402.382812 376.003906 406.199219 376.003906 L 413.125 376.003906 C 416.9375 376.003906 420.050781 379.117188 420.050781 382.929688 C 420.050781 386.746094 416.9375 389.855469 413.125 389.855469 Z M 454.679688 334.449219 L 335.34375 334.449219 L 322.195312 375.03125 L 322.03125 375.4375 L 312.835938 403.707031 L 454.679688 403.707031 C 466.121094 403.707031 475.457031 394.375 475.457031 382.929688 L 475.457031 355.226562 C 475.457031 343.785156 466.121094 334.449219 454.679688 334.449219"/><g clip-path="url(#a)"><path fill="#FFF" d="M 343.867188 92.046875 C 362.34375 92.046875 380.226562 94.671875 397.1875 99.542969 L 379.386719 154.378906 L 393.941406 154.378906 L 410.417969 103.816406 C 484.679688 131.03125 537.789062 202.375 537.789062 285.96875 C 537.789062 392.914062 450.808594 479.890625 343.867188 479.890625 C 325.386719 479.890625 307.503906 477.265625 290.542969 472.398438 L 308.34375 417.558594 L 293.789062 417.558594 L 277.3125 468.125 C 203.050781 440.90625 149.945312 369.566406 149.945312 285.96875 C 149.945312 179.027344 236.921875 92.046875 343.867188 92.046875 Z M 343.867188 493.742188 C 458.410156 493.742188 551.640625 400.515625 551.640625 285.96875 C 551.640625 171.425781 458.410156 78.195312 343.867188 78.195312 C 229.320312 78.195312 136.09375 171.425781 136.09375 285.96875 C 136.09375 400.515625 229.320312 493.742188 343.867188 493.742188"/></g></svg>