<?xml version="1.0" standalone="no"?>
<!DOCTYPE svg PUBLIC "-//W3C//DTD SVG 20010904//EN"
 "http://www.w3.org/TR/2001/REC-SVG-20010904/DTD/svg10.dtd">
<svg version="1.0" xmlns="http://www.w3.org/2000/svg"
 width="1510.000000pt" height="968.000000pt" viewBox="0 0 1510.000000 968.000000"
 preserveAspectRatio="xMidYMid meet">

<g transform="translate(0.000000,968.000000) scale(0.100000,-0.100000)"
fill="#000000" stroke="none">
<path d="M12900 8287 c-30 -11 -136 -49 -235 -85 -461 -165 -992 -424 -1395
-680 -258 -164 -571 -411 -841 -664 l-146 -137 -169 237 c-92 130 -186 263
-208 295 l-40 57 -338 0 c-186 0 -338 -3 -338 -7 0 -5 85 -127 188 -273 104
-146 262 -368 351 -495 90 -126 166 -235 168 -242 3 -6 -57 -90 -132 -185
-140 -178 -289 -384 -412 -568 -78 -118 -223 -354 -223 -364 0 -3 164 -6 364
-6 l364 0 57 93 c112 181 340 517 349 514 5 -2 88 -116 185 -253 97 -138 193
-273 213 -302 l38 -52 335 0 c224 0 335 3 335 10 0 9 -360 522 -672 958 l-87
122 138 173 c460 576 1041 1112 1616 1492 159 105 437 273 537 325 38 19 68
41 68 48 0 15 -2 15 -70 -11z"/>
<path d="M3360 7313 c-266 -28 -518 -139 -715 -315 -229 -205 -359 -423 -431
-728 -17 -70 -18 -188 -21 -1847 l-3 -1773 310 0 310 0 0 1250 0 1250 315 0
315 0 0 310 0 310 -316 0 -317 0 6 173 c3 112 10 193 21 232 75 278 326 495
602 520 l74 7 0 309 0 309 -57 -2 c-32 0 -74 -3 -93 -5z"/>
<path d="M3910 4985 l0 -2335 310 0 310 0 0 2335 0 2335 -310 0 -310 0 0
-2335z"/>
<path d="M5173 7302 c-156 -56 -252 -192 -253 -359 0 -119 25 -180 109 -264
83 -83 145 -109 261 -109 118 0 177 25 267 115 64 64 73 78 93 144 55 181 -26
369 -196 452 -82 41 -201 50 -281 21z"/>
<path d="M6040 3430 l0 -2340 310 0 310 0 2 934 3 934 75 -50 c231 -153 502
-240 790 -254 458 -22 860 134 1181 457 252 254 401 563 438 911 54 496 -99
945 -438 1287 -175 176 -381 307 -597 379 -458 153 -968 90 -1368 -171 l-83
-55 -154 154 -154 154 -157 0 -158 0 0 -2340z m1675 1709 c117 -14 264 -64
367 -125 114 -68 257 -212 326 -329 171 -290 171 -660 0 -950 -69 -117 -212
-261 -326 -329 -293 -175 -671 -175 -964 0 -114 68 -257 212 -326 329 -170
289 -170 661 0 950 69 117 212 261 326 329 133 79 307 130 467 135 22 0 81 -4
130 -10z"/>
<path d="M4980 4205 l0 -1555 310 0 310 0 0 1555 0 1555 -310 0 -310 0 0
-1555z"/>
</g>
</svg>
