<?xml version="1.0" standalone="no"?>
<!DOCTYPE svg PUBLIC "-//W3C//DTD SVG 20010904//EN"
 "http://www.w3.org/TR/2001/REC-SVG-20010904/DTD/svg10.dtd">
<svg version="1.0" xmlns="http://www.w3.org/2000/svg"
 width="1309.000000pt" height="968.000000pt" viewBox="0 0 1309.000000 968.000000"
 preserveAspectRatio="xMidYMid meet">

<g transform="translate(0.000000,968.000000) scale(0.100000,-0.100000)"
fill="#000000" stroke="none">
<path d="M12060 9012 c0 -5 -28 -17 -62 -27 -463 -138 -1227 -426 -1793 -675
-22 -10 -92 -40 -155 -68 -109 -47 -159 -70 -395 -180 -362 -167 -1061 -531
-1390 -722 -49 -29 -110 -64 -135 -78 -25 -14 -74 -43 -110 -65 -36 -22 -78
-47 -95 -57 -41 -24 -226 -137 -370 -228 -239 -149 -565 -382 -955 -682 -96
-75 -477 -380 -528 -424 -15 -13 -76 -66 -137 -117 -272 -232 -583 -519 -810
-748 -122 -124 -156 -148 -168 -118 -4 10 -250 358 -354 502 -16 22 -85 119
-153 215 -68 96 -137 194 -154 217 -17 23 -96 135 -176 248 -80 114 -172 243
-205 288 l-60 82 -875 3 c-481 1 -885 0 -898 -3 -29 -7 -28 -25 6 -68 27 -36
144 -200 172 -242 30 -44 56 -82 130 -185 41 -58 83 -116 92 -130 10 -14 40
-56 68 -95 27 -38 70 -99 95 -135 24 -36 74 -105 110 -155 36 -49 73 -101 83
-115 23 -34 222 -316 291 -414 31 -43 63 -88 71 -100 8 -11 71 -100 140 -197
69 -96 159 -224 200 -283 41 -58 114 -162 162 -229 48 -67 97 -137 110 -155
13 -18 37 -52 54 -75 17 -23 48 -66 68 -96 l38 -53 -29 -38 c-15 -20 -100
-127 -188 -236 -88 -109 -175 -219 -194 -244 -19 -25 -70 -91 -113 -148 -96
-124 -335 -444 -400 -532 -185 -256 -555 -791 -618 -895 -8 -13 -60 -94 -115
-180 -55 -85 -104 -163 -110 -173 -5 -9 -34 -54 -63 -100 -28 -45 -52 -85 -52
-88 0 -2 -12 -23 -27 -47 -15 -23 -32 -51 -38 -62 -6 -11 -23 -40 -37 -65 -14
-25 -38 -66 -53 -93 -15 -26 -24 -54 -21 -62 5 -13 128 -15 966 -15 l960 0 23
37 c13 21 50 81 82 133 129 212 427 678 520 815 34 50 146 215 250 368 118
174 195 277 205 277 10 0 65 -70 141 -177 68 -98 186 -266 262 -373 76 -107
206 -292 288 -410 371 -532 425 -610 443 -629 l19 -21 891 2 891 3 0 22 c0 23
-24 58 -250 377 -71 101 -164 231 -205 290 -41 59 -93 133 -116 164 -22 31
-94 134 -160 227 -236 334 -315 446 -634 895 -178 250 -377 532 -443 625 -66
94 -138 193 -159 222 -21 29 -38 55 -38 59 0 13 420 547 609 774 489 588 1228
1368 1721 1816 36 32 97 88 135 124 76 71 209 189 319 285 259 223 316 271
606 506 191 154 623 484 747 569 12 8 75 53 140 99 324 231 474 329 958 629
273 169 690 412 880 512 140 73 146 78 139 108 -6 20 -44 33 -44 14z"/>
</g>
</svg>
